<?xml version="1.0" encoding="UTF-8"?>
<!DOCTYPE svg PUBLIC "-//W3C//DTD SVG 1.1//EN" "http://www.w3.org/Graphics/SVG/1.1/DTD/svg11.dtd">
<svg xmlns="http://www.w3.org/2000/svg" version="1.1" width="389px" height="264px" style="shape-rendering:geometricPrecision; text-rendering:geometricPrecision; image-rendering:optimizeQuality; fill-rule:evenodd; clip-rule:evenodd" xmlns:xlink="http://www.w3.org/1999/xlink">
<g><path style="opacity:1" fill="#0272be" d="M 186.5,36.5 C 202.531,33.9264 217.197,37.0931 230.5,46C 239.708,54.6116 244.041,65.2783 243.5,78C 242.672,93.1283 240.172,107.962 236,122.5C 224.931,144.454 207.098,153.954 182.5,151C 178.847,150.227 175.347,149.06 172,147.5C 169.344,160.433 167.011,173.433 165,186.5C 163.033,188.27 160.7,189.27 158,189.5C 149.857,188.743 141.69,188.243 133.5,188C 132.903,186.938 132.57,185.772 132.5,184.5C 139.62,139.491 146.787,94.4911 154,49.5C 154.833,46.6667 156.667,44.8333 159.5,44C 168.413,40.6918 177.413,38.1918 186.5,36.5 Z"/></g>
<g><path style="opacity:1" fill="#fdfefe" d="M 199.5,56.5 C 199.509,63.6297 199.676,70.9631 200,78.5C 201.376,84.2518 203.042,89.9185 205,95.5C 205.667,101.167 205.667,106.833 205,112.5C 200.841,119.67 194.674,122.17 186.5,120C 183.272,118.437 181.105,115.937 180,112.5C 178.504,105.901 178.171,99.2342 179,92.5C 183.153,78.8776 189.986,66.8776 199.5,56.5 Z"/></g>
<g><path style="opacity:0.987" fill="#1c1c1c" d="M 34.5,200.5 C 41.5079,200.334 48.5079,200.5 55.5,201C 65.1407,202.811 69.8073,208.644 69.5,218.5C 70.5194,225.629 67.8527,230.796 61.5,234C 52.9422,235.441 44.2756,235.941 35.5,235.5C 35.2161,232.223 35.5495,229.057 36.5,226C 42.472,226.406 48.472,226.406 54.5,226C 58.6237,225.018 60.6237,222.352 60.5,218C 60.2695,215.3 59.2695,212.967 57.5,211C 49.5069,210.5 41.5069,210.334 33.5,210.5C 33.5,222.5 33.5,234.5 33.5,246.5C 30.4281,246.817 27.4281,246.484 24.5,245.5C 23.853,239.381 23.5196,233.214 23.5,227C 23.3913,220.091 23.8913,213.257 25,206.5C 27.5509,203.319 30.7176,201.319 34.5,200.5 Z"/></g>
<g><path style="opacity:1" fill="#1b1b1b" d="M 124.5,200.5 C 127.448,200.223 130.281,200.556 133,201.5C 133.498,204.817 133.665,208.15 133.5,211.5C 137.846,211.334 142.179,211.501 146.5,212C 147.833,215 147.833,218 146.5,221C 142.179,221.499 137.846,221.666 133.5,221.5C 133.5,229.833 133.5,238.167 133.5,246.5C 130.223,246.784 127.057,246.451 124,245.5C 123.5,237.507 123.334,229.507 123.5,221.5C 120.15,221.665 116.817,221.498 113.5,221C 112.427,217.888 112.427,214.721 113.5,211.5C 116.833,211.5 120.167,211.5 123.5,211.5C 123.244,207.731 123.577,204.064 124.5,200.5 Z"/></g>
<g><path style="opacity:0.998" fill="#1a1a1a" d="M 238.5,200.5 C 249.838,200.333 261.172,200.5 272.5,201C 274.585,203.837 274.919,206.837 273.5,210C 261.838,210.5 250.171,210.667 238.5,210.5C 238.183,219.085 238.517,227.585 239.5,236C 248.16,236.5 256.827,236.666 265.5,236.5C 265.5,233.833 265.5,231.167 265.5,228.5C 258.245,228.813 251.079,228.48 244,227.5C 243.223,224.571 243.39,221.737 244.5,219C 253.935,218.055 263.268,218.389 272.5,220C 273,220.5 273.5,221 274,221.5C 274.667,229.167 274.667,236.833 274,244.5C 273.25,245.126 272.416,245.626 271.5,246C 260.5,246.667 249.5,246.667 238.5,246C 231.945,244.441 228.778,240.274 229,233.5C 228.333,225.5 228.333,217.5 229,209.5C 230.783,204.879 233.95,201.879 238.5,200.5 Z"/></g>
<g><path style="opacity:0.997" fill="#1b1b1b" d="M 81.5,211.5 C 88.5079,211.334 95.5079,211.5 102.5,212C 109.866,214.558 112.699,219.725 111,227.5C 109.271,231.785 106.105,234.285 101.5,235C 96.1667,235.667 90.8333,235.667 85.5,235C 84.1667,232 84.1667,229 85.5,226C 90.242,225.674 94.742,225.841 99,226.5C 102.184,225.594 103.017,223.761 101.5,221C 95.4478,220.21 89.4478,220.376 83.5,221.5C 82.3384,226.131 82.1717,230.798 83,235.5C 83.5,236 84,236.5 84.5,237C 89.8642,237.171 95.1975,237.671 100.5,238.5C 101.788,241.034 101.788,243.534 100.5,246C 78.3668,250.534 69.5335,241.7 74,219.5C 75.3532,215.65 77.8532,212.983 81.5,211.5 Z"/></g>
<g><path style="opacity:0.993" fill="#1a1b1b" d="M 160.5,211.5 C 167.175,211.334 173.842,211.5 180.5,212C 181.833,215 181.833,218 180.5,221C 173.842,221.5 167.175,221.666 160.5,221.5C 160.666,229.507 160.5,237.507 160,245.5C 157,246.833 154,246.833 151,245.5C 150.083,236.091 150.416,226.758 152,217.5C 154.186,214.465 157.019,212.465 160.5,211.5 Z"/></g>
<g><path style="opacity:0.995" fill="#1b1b1b" d="M 193.5,211.5 C 200.508,211.334 207.508,211.5 214.5,212C 221.742,215.511 224.742,221.345 223.5,229.5C 224.885,237.584 221.885,243.084 214.5,246C 190.863,252.019 181.029,243.185 185,219.5C 186.445,215.218 189.278,212.551 193.5,211.5 Z M 194.5,221.5 C 200.833,221.5 207.167,221.5 213.5,221.5C 213.5,226.5 213.5,231.5 213.5,236.5C 207.491,236.666 201.491,236.499 195.5,236C 194.531,231.263 194.197,226.43 194.5,221.5 Z"/></g>
<g><path style="opacity:0.984" fill="#1c1c1c" d="M 286.5,211.5 C 293.508,211.334 300.508,211.5 307.5,212C 315.162,214.981 318.162,220.648 316.5,229C 318.085,236.825 315.418,242.492 308.5,246C 301.5,246.667 294.5,246.667 287.5,246C 279.114,242.725 276.614,236.892 280,228.5C 281.961,225.865 284.461,224.031 287.5,223C 293.416,222.193 299.25,222.359 305,223.5C 305.777,226.429 305.61,229.263 304.5,232C 299.833,232 295.167,232 290.5,232C 287.085,233.143 286.751,234.81 289.5,237C 295.22,237.788 300.886,237.621 306.5,236.5C 307.833,231.5 307.833,226.5 306.5,221.5C 299.883,220.704 293.217,220.204 286.5,220C 285.321,217.204 285.321,214.371 286.5,211.5 Z"/></g>
<g><path style="opacity:0.996" fill="#1c1c1c" d="M 328.5,211.5 C 336.087,211.186 343.587,211.519 351,212.5C 351.777,215.429 351.61,218.263 350.5,221C 343.833,221.333 337.167,221.667 330.5,222C 336.167,222.333 341.833,222.667 347.5,223C 354.414,226.337 356.914,231.837 355,239.5C 353.437,242.728 350.937,244.895 347.5,246C 338.921,246.816 330.421,246.649 322,245.5C 321.223,242.571 321.39,239.737 322.5,237C 330.167,236.667 337.833,236.333 345.5,236C 346.833,235 346.833,234 345.5,233C 341.018,231.499 336.518,231.333 332,232.5C 323.534,231.558 319.868,226.891 321,218.5C 322.767,215.228 325.267,212.895 328.5,211.5 Z"/></g>
</svg>
